<svg xmlns="http://www.w3.org/2000/svg" xmlns:svg="http://www.w3.org/2000/svg" id="svg6" version="1.1" viewBox="0 0 16 16"><metadata id="metadata10"/><defs id="defs3051"><style id="current-color-scheme" type="text/css">.ColorScheme-Text{color:#eff0f1}</style></defs><path style="fill:currentColor;fill-opacity:1;stroke:none" id="path4" d="M 11 3.5 L 11 5 L 5 5 C 3.338 5 2 6.338 2 8 L 3 8 C 3 6.892 3.892 6 5 6 L 11 6 L 11 7.5 L 14 5.5 L 11 3.5 z M 13 8 C 13 9.108 12.108 10 11 10 L 5 10 L 5 8.5 L 2 10.5 L 5 12.5 L 5 11 L 11 11 C 12.662 11 14 9.662 14 8 L 13 8 z" class="ColorScheme-Text"/><ellipse id="path3715" cx="8.068" cy="8.136" rx=".814" ry=".746" style="fill:#eff0f1;fill-opacity:1"/></svg>