<svg xmlns="http://www.w3.org/2000/svg" id="svg8" width="123.409" height="123.409" version="1.1" viewBox="0 0 32.652 32.652"><metadata id="metadata5"/><g id="layer1" transform="translate(-1.2159538,-263.13209)"><circle style="fill:#1a1a1a;stroke-width:.13229674" id="path12" cx="17.542" cy="279.458" r="16.326"/><path style="fill:#fff;stroke-width:.26458332" id="path30" d="m 22.783046,279.8358 c -0.969383,-0.55968 -7.802379,-26.06077 -7.242706,-27.03015 0.559674,-0.96938 26.060762,-7.80238 27.030145,-7.2427 0.969383,0.55967 7.802379,26.06076 7.242706,27.03014 -0.559674,0.96938 -26.060763,7.80238 -27.030145,7.24271 z" transform="matrix(-0.12941449,0.48298145,-0.48298146,-0.12941449,148.64971,297.67289)"/><path style="fill:#1a1a1a;stroke-width:.26458332" id="path30-3" d="m 22.783046,279.8358 c -0.969383,-0.55968 -7.802379,-26.06077 -7.242706,-27.03015 0.559674,-0.96938 26.060762,-7.80238 27.030145,-7.2427 0.969383,0.55967 7.802379,26.06076 7.242706,27.03014 -0.559674,0.96938 -26.060763,7.80238 -27.030145,7.24271 z" transform="matrix(-0.11978344,0.44703777,-0.44703777,-0.11978341,138.89261,296.31734)"/><rect style="fill:#1a1a1a;stroke-width:.13229674" id="rect146" width="3.707" height="7.128" x="15.689" y="268.424"/><rect id="rect161" width="3.707" height="7.128" x="15.689" y="283.364" style="fill:#1a1a1a;stroke-width:.13229674"/><rect style="fill:#1a1a1a;stroke-width:.13229674" id="rect146-6" width="3.707" height="7.128" x="-281.576" y="7.025" transform="rotate(-90)"/><rect id="rect199" width="3.707" height="7.128" x="-281.576" y="20.784" transform="rotate(-90)" style="fill:#1a1a1a;stroke-width:.13229674"/></g></svg>