<svg xmlns="http://www.w3.org/2000/svg" id="svg8" width="123.409" height="123.409" version="1.1" viewBox="0 0 32.652 32.652"><metadata id="metadata5"/><g id="layer1" transform="translate(-1.2159538,-263.13209)"><circle style="fill:#1a1a1a;stroke-width:.13229674" id="path12" cx="17.542" cy="279.458" r="16.326"/><path style="fill:#fff;stroke-width:.26458332" id="path30" d="m 22.783046,279.8358 c -1.187247,-0.68546 -1.187247,-33.5874 0,-34.27285 1.187246,-0.68546 29.681159,15.76551 29.681159,17.13642 0,1.37092 -28.493913,17.82188 -29.681159,17.13643 z" transform="matrix(0.2500096,-0.43302933,0.43302933,0.2500096,-107.64087,227.9307)"/><rect style="fill:#1a1a1a;stroke-width:.19363759" id="rect226" width="3.992" height="13.515" x="6.96" y="272.446"/><rect id="rect228" width="4.334" height="7.926" x="3.708" y="275.127" style="fill:#1a1a1a;stroke-width:.15451857"/><rect style="fill:#fff;stroke-width:.13229674" id="rect232" width="2.888" height="8.663" x="7.777" y="275.127" rx=".5" ry=".5"/><rect style="fill:red;stroke-width:.10191034" id="rect236" width=".217" height="11.803" x="215.303" y="173.9" rx=".5" ry=".5" transform="rotate(45)"/><rect id="rect278" width=".217" height="11.803" x="179.693" y="209.511" rx=".5" ry=".5" transform="matrix(-0.70710678,0.70710678,0.70710678,0.70710678,0,0)" style="fill:red;stroke-width:.10191034"/></g></svg>